<?xml version="1.0" encoding="UTF-8"?>
<svg id="_レイヤー_1" data-name="レイヤー_1" xmlns="http://www.w3.org/2000/svg" version="1.1" xmlns:xlink="http://www.w3.org/1999/xlink" viewBox="0 0 217.9 253.84">
  <!-- Generator: Adobe Illustrator 30.6.0, SVG Export Plug-In . SVG Version: 2.1.4 Build 109)  -->
  <defs>
    <style>
      .st0 {
        fill: url(#_名称未設定グラデーション_2);
      }

      .st1 {
        fill: none;
      }

      .st2 {
        fill: url(#_名称未設定グラデーション);
      }

      .st3 {
        fill: #ffffff;
      }

      .st4 {
        clip-path: url(#clippath);
      }
    </style>
    <clipPath id="clippath">
      <path class="st1" d="M107.3.01c-.5,0-12.7,4.5-27.3,9.9h0c-14.6,5.4-27.4,10.1-28.5,10.5h0c-1.5.4.5,1.9,8.9,6.1h0l10.8,5.5-9.3,9.7c-5.2,5.3-18.6,19.2-29.9,30.7h0c-11.3,11.6-23.1,23.7-26.2,27.1h0L.1,105.52l7,5c22.7,15.8,50.9,38.6,70.5,56.9h0l12,11.3,7.3-7.5,7.2-7.5-10.3-10c-13.4-13.1-28.8-26.4-46.5-40.1h0l-14.3-11.1,7.8-8c36.6-38.2,47.1-48.5,47.5-46.9h0c.3,1,.8,4,1.2,6.8h0c.9,6.8,1.6,9.6,2.4,9.3h0c.3-.2,3.4-3.3,6.8-6.9h0l6.3-6.6,1.5-23.4C108.08,1.46,108.19,0,107.47,0h0c-.05,0-.11,0-.17.01ZM114.7,4.91c-.3,2.5-1.1,14.2-1.8,26h0l-1.2,21.5-16.6,16.8c-9.1,9.3-21.3,21-27,26h0c-5.8,5.1-11.7,10.3-13.2,11.7h0l-2.7,2.5,8.3,6.7,8.3,6.6,6.3-5.1c11.2-8.9,32.4-29.7,53.7-52.5h0c5.2-5.6,9.8-10.1,10.1-10h0c.3.2,10.9,10.8,23.5,23.7h0l22.8,23.4-4.2,3.6-4.3,3.7,8.3,6.6,8.3,6.6,7.6-5.2c4.2-2.9,9.7-6.8,12.3-8.6h0l4.7-3.3-4.9-5.6c-2.7-3.1-25.8-26.7-51.3-52.6h0L115.3.51l-.6,4.4ZM128.4,76.01c-.5,0-3.9,3.3-7.7,7.4h0l-6.7,7.2,12.2,11.5c15.3,14.3,30.7,27.5,46.6,39.7h0c6.7,5.2,12.1,9.8,12,10.2h0c-.7,1.7-54.1,55.8-54.7,55.4h0c-.4-.2-1.4-4.3-2.1-9.2h0l-1.3-8.7-6.6,7-6.7,6.9-1.7,24.5c-1,13.5-1.7,25-1.7,25.6h0c0,.8,2.7.1,7.3-1.6h0c3.9-1.5,16.7-6.2,28.2-10.5h0c11.6-4.3,21.4-8.1,21.8-8.5h0c.8-.7-12.9-7.8-18.2-9.5h0c-1.2-.4-2.1-1.1-1.9-1.5h0c.2-.5,16.2-17.1,35.7-37h0c19.5-19.9,35-36.5,34.5-36.9h0c-.5-.5-6.7-5-13.8-10.1h0c-25.8-18.7-48-36.8-65.7-53.7h0c-4.64-4.54-8.89-8.2-9.48-8.2h0s-.02,0-.02,0ZM20.5,134.11c-2.2,1.7-7.7,5.5-12.3,8.6h0l-8.2,5.5,6.2,6.6c3.5,3.6,19.6,20.1,35.8,36.6h0c16.2,16.5,36.5,37.1,45,45.8h0l15.5,15.8.7-3.3c.4-1.8,1.4-13.4,2.3-25.7h0c1.6-22.2,1.6-22.5,4.5-26.1h0c4.4-5.6,32.7-32.9,44.8-43.1h0c5.9-5.1,10.8-9.4,10.9-9.8h0c.2-.6-14.1-12.2-15.9-12.9h0c-1.8-.8-19.4,15.2-44.5,40.4h0l-26.2,26.4-22.8-23.1c-12.5-12.6-22.9-23.4-23.1-23.9h0c-.2-.5,1.5-2.1,3.8-3.6h0c2.2-1.5,3.9-3.2,3.7-3.7h0c-.1-.5-3.9-3.8-8.3-7.2h0l-8-6.3-3.9,3Z"/>
    </clipPath>
    <linearGradient id="_名称未設定グラデーション" data-name="名称未設定グラデーション" x1="124.5" y1="169.03" x2="168.3" y2="125.23" gradientTransform="translate(0 254.85) scale(1 -1)" gradientUnits="userSpaceOnUse">
      <stop offset="0" stop-color="#888888"/>
      <stop offset="1" stop-color="#ffffff"/>
    </linearGradient>
    <linearGradient id="_名称未設定グラデーション_2" data-name="名称未設定グラデーション 2" x1="92.5" y1="86.83" x2="48.7" y2="130.63" gradientTransform="translate(0 254.85) scale(1 -1)" gradientUnits="userSpaceOnUse">
      <stop offset="0" stop-color="#888888"/>
      <stop offset="1" stop-color="#ffffff"/>
    </linearGradient>
  </defs>
  <path class="st3" d="M80,9.91c-14.6,5.4-27.4,10.1-28.5,10.5-1.5.4.5,1.9,8.9,6.1l10.8,5.5-9.3,9.7c-5.2,5.3-18.6,19.2-29.9,30.7-11.3,11.6-23.1,23.7-26.2,27.1L.1,105.51l7,5c22.7,15.8,50.9,38.6,70.5,56.9l12,11.3,7.3-7.5,7.2-7.5-10.3-10c-13.4-13.1-28.8-26.4-46.5-40.1l-14.3-11.1,7.8-8c36.6-38.2,47.1-48.5,47.5-46.9.3,1,.8,4,1.2,6.8.9,6.8,1.6,9.6,2.4,9.3.3-.2,3.4-3.3,6.8-6.9l6.3-6.6,1.5-23.4C108.2-.39,108.2-.09,107.3.01c-.5,0-12.7,4.5-27.3,9.9Z"/>
  <path class="st3" d="M114.7,4.91c-.3,2.5-1.1,14.2-1.8,26l-1.2,21.5-16.6,16.8c-9.1,9.3-21.3,21-27,26-5.8,5.1-11.7,10.3-13.2,11.7l-2.7,2.5,8.3,6.7,8.3,6.6,6.3-5.1c11.2-8.9,32.4-29.7,53.7-52.5,5.2-5.6,9.8-10.1,10.1-10,.3.2,10.9,10.8,23.5,23.7l22.8,23.4-4.2,3.6-4.3,3.7,8.3,6.6,8.3,6.6,7.6-5.2c4.2-2.9,9.7-6.8,12.3-8.6l4.7-3.3-4.9-5.6c-2.7-3.1-25.8-26.7-51.3-52.6L115.3.51l-.6,4.4Z"/>
  <path class="st3" d="M120.7,83.41l-6.7,7.2,12.2,11.5c15.3,14.3,30.7,27.5,46.6,39.7,6.7,5.2,12.1,9.8,12,10.2-.7,1.7-54.1,55.8-54.7,55.4-.4-.2-1.4-4.3-2.1-9.2l-1.3-8.7-6.6,7-6.7,6.9-1.7,24.5c-1,13.5-1.7,25-1.7,25.6,0,.8,2.7.1,7.3-1.6,3.9-1.5,16.7-6.2,28.2-10.5,11.6-4.3,21.4-8.1,21.8-8.5.8-.7-12.9-7.8-18.2-9.5-1.2-.4-2.1-1.1-1.9-1.5.2-.5,16.2-17.1,35.7-37s35-36.5,34.5-36.9c-.5-.5-6.7-5-13.8-10.1-25.8-18.7-48-36.8-65.7-53.7-4.7-4.6-9-8.3-9.5-8.2-.5,0-3.9,3.3-7.7,7.4Z"/>
  <path class="st3" d="M20.5,134.11c-2.2,1.7-7.7,5.5-12.3,8.6L0,148.21l6.2,6.6c3.5,3.6,19.6,20.1,35.8,36.6s36.5,37.1,45,45.8l15.5,15.8.7-3.3c.4-1.8,1.4-13.4,2.3-25.7,1.6-22.2,1.6-22.5,4.5-26.1,4.4-5.6,32.7-32.9,44.8-43.1,5.9-5.1,10.8-9.4,10.9-9.8.2-.6-14.1-12.2-15.9-12.9-1.8-.8-19.4,15.2-44.5,40.4l-26.2,26.4-22.8-23.1c-12.5-12.6-22.9-23.4-23.1-23.9s1.5-2.1,3.8-3.6c2.2-1.5,3.9-3.2,3.7-3.7-.1-.5-3.9-3.8-8.3-7.2l-8-6.3-3.9,3Z"/>
  <g class="st4">
    <polygon class="st2" points="130.5 74.12 112.8 91.82 194.8 173.82 212.5 156.22 130.5 74.12"/>
    <polygon class="st0" points="86.5 179.72 104.2 162.02 22.2 80.02 4.5 97.62 86.5 179.72"/>
  </g>
</svg>